HIERARCHY
ROOT hip
{
  OFFSET 0 0 0
  CHANNELS 6 Xposition Yposition Zposition Zrotation Yrotation Xrotation
  JOINT abdomen
  {
    OFFSET 0 20.6881 -0.73152
    CHANNELS 3 Zrotation Xrotation Yrotation
    JOINT chest
    {
      OFFSET 0 11.7043 -0.48768
      CHANNELS 3 Zrotation Xrotation Yrotation
      JOINT neck
      {
        OFFSET 0 22.1894 -2.19456
        CHANNELS 3 Zrotation Xrotation Yrotation
        JOINT head
        {
          OFFSET -0.24384 7.07133 1.2192
          CHANNELS 3 Zrotation Xrotation Yrotation
          JOINT leftEye
          {
            OFFSET 4.14528 8.04674 8.04672
            CHANNELS 3 Zrotation Xrotation Yrotation
            End Site
            {
              OFFSET 1 0 0
            }
          }
          JOINT rightEye
          {
            OFFSET -3.6576 8.04674 8.04672
            CHANNELS 3 Zrotation Xrotation Yrotation
            End Site
            {
              OFFSET 1 0 0
            }
          }
        }
      }
      JOINT rCollar
      {
        OFFSET -2.68224 19.2634 -4.8768
        CHANNELS 3 Zrotation Xrotation Yrotation
        JOINT rShldr
        {
          OFFSET -8.77824 -1.95073 1.46304
          CHANNELS 3 Zrotation Xrotation Yrotation
          JOINT rForeArm
          {
            OFFSET -28.1742 -1.7115 0.48768
            CHANNELS 3 Zrotation Xrotation Yrotation
            JOINT rHand
            {
              OFFSET -22.5879 0.773209 7.07136
              CHANNELS 3 Zrotation Xrotation Yrotation
              JOINT rThumb1
              {
                OFFSET -1.2192 -0.487915 3.41376
                CHANNELS 3 Zrotation Xrotation Yrotation
                JOINT rThumb2
                {
                  OFFSET -3.37035 -0.52449 3.41376
                  CHANNELS 3 Zrotation Xrotation Yrotation
                  End Site
                  {
                    OFFSET -1.78271 -1.18214 1.43049
                  }
                }
              }
              JOINT rIndex1
              {
                OFFSET -7.75947 0.938293 5.60832
                CHANNELS 3 Zrotation Xrotation Yrotation
                JOINT rIndex2
                {
                  OFFSET -2.54057 -0.884171 1.56538
                  CHANNELS 3 Zrotation Xrotation Yrotation
                  End Site
                  {
                    OFFSET -1.62519 -0.234802 1.16502
                  }
                }
              }
              JOINT rMid1
              {
                OFFSET -8.24714 1.18213 3.41376
                CHANNELS 3 Zrotation Xrotation Yrotation
                JOINT rMid2
                {
                  OFFSET -3.10165 -0.590103 1.0647
                  CHANNELS 3 Zrotation Xrotation Yrotation
                  End Site
                  {
                    OFFSET -2.48547 -0.328903 0.83742
                  }
                }
              }
              JOINT rRing1
              {
                OFFSET -8.82822 0.546677 1.51678
                CHANNELS 3 Zrotation Xrotation Yrotation
                JOINT rRing2
                {
                  OFFSET -2.60934 -0.819778 -0.0198488
                  CHANNELS 3 Zrotation Xrotation Yrotation
                  End Site
                  {
                    OFFSET -2.33842 -0.294052 0.168128
                  }
                }
              }
              JOINT rPinky1
              {
                OFFSET -8.27202 -0.0477905 -0.4584
                CHANNELS 3 Zrotation Xrotation Yrotation
                JOINT rPinky2
                {
                  OFFSET -1.82734 -0.647385 -0.700984
                  CHANNELS 3 Zrotation Xrotation Yrotation
                  End Site
                  {
                    OFFSET -1.69225 -0.51767 -0.607171
                  }
                }
              }
            }
          }
        }
      }
      JOINT lCollar
      {
        OFFSET 2.68224 19.2634 -4.8768
        CHANNELS 3 Zrotation Xrotation Yrotation
        JOINT lShldr
        {
          OFFSET 8.77824 -1.95073 1.46304
          CHANNELS 3 Zrotation Xrotation Yrotation
          JOINT lForeArm
          {
            OFFSET 28.1742 -1.7115 0.48768
            CHANNELS 3 Zrotation Xrotation Yrotation
            JOINT lHand
            {
              OFFSET 22.5879 0.773209 7.07136
              CHANNELS 3 Zrotation Xrotation Yrotation
              JOINT lThumb1
              {
                OFFSET 1.2192 -0.487915 3.41376
                CHANNELS 3 Zrotation Xrotation Yrotation
                JOINT lThumb2
                {
                  OFFSET 3.37035 -0.52449 3.41376
                  CHANNELS 3 Zrotation Xrotation Yrotation
                  End Site
                  {
                    OFFSET 1.78271 -1.18214 1.43049
                  }
                }
              }
              JOINT lIndex1
              {
                OFFSET 7.75947 0.938293 5.60832
                CHANNELS 3 Zrotation Xrotation Yrotation
                JOINT lIndex2
                {
                  OFFSET 2.54057 -0.884171 1.56538
                  CHANNELS 3 Zrotation Xrotation Yrotation
                  End Site
                  {
                    OFFSET 1.62519 -0.234802 1.16502
                  }
                }
              }
              JOINT lMid1
              {
                OFFSET 8.24714 1.18213 3.41376
                CHANNELS 3 Zrotation Xrotation Yrotation
                JOINT lMid2
                {
                  OFFSET 3.10165 -0.590103 1.0647
                  CHANNELS 3 Zrotation Xrotation Yrotation
                  End Site
                  {
                    OFFSET 2.48547 -0.328903 0.83742
                  }
                }
              }
              JOINT lRing1
              {
                OFFSET 8.82822 0.546677 1.51678
                CHANNELS 3 Zrotation Xrotation Yrotation
                JOINT lRing2
                {
                  OFFSET 2.60934 -0.819778 -0.0198488
                  CHANNELS 3 Zrotation Xrotation Yrotation
                  End Site
                  {
                    OFFSET 2.33842 -0.294052 0.168128
                  }
                }
              }
              JOINT lPinky1
              {
                OFFSET 8.27202 -0.0477905 -0.4584
                CHANNELS 3 Zrotation Xrotation Yrotation
                JOINT lPinky2
                {
                  OFFSET 1.82734 -0.647385 -0.700984
                  CHANNELS 3 Zrotation Xrotation Yrotation
                  End Site
                  {
                    OFFSET 1.69225 -0.51767 -0.607171
                  }
                }
              }
            }
          }
        }
      }
    }
  }
  JOINT rButtock
  {
    OFFSET -8.77824 4.35084 1.2192
    CHANNELS 3 Zrotation Xrotation Yrotation
    JOINT rThigh
    {
      OFFSET 0 -1.70687 -2.19456
      CHANNELS 3 Zrotation Xrotation Yrotation
      JOINT rShin
      {
        OFFSET 0 -36.8199 0.73152
        CHANNELS 3 Zrotation Xrotation Yrotation
        JOINT rFoot
        {
          OFFSET 0.73152 -45.1104 -5.12064
          CHANNELS 3 Zrotation Xrotation Yrotation
          End Site
          {
            OFFSET -1.1221 -3.69964 12.103
          }
        }
      }
    }
  }
  JOINT lButtock
  {
    OFFSET 8.77824 4.35084 1.2192
    CHANNELS 3 Zrotation Xrotation Yrotation
    JOINT lThigh
    {
      OFFSET 0 -1.70687 -2.19456
      CHANNELS 3 Zrotation Xrotation Yrotation
      JOINT lShin
      {
        OFFSET 0 -36.8199 0.73152
        CHANNELS 3 Zrotation Xrotation Yrotation
        JOINT lFoot
        {
          OFFSET -0.73152 -45.1104 -5.12064
          CHANNELS 3 Zrotation Xrotation Yrotation
          End Site
          {
            OFFSET 1.1221 -3.69964 12.103
          }
        }
      }
    }
  }
}
MOTION
Frames:	4
Frame Time:	0.03333
0.18097665160894394 60.48173904418945 -0.06922027096152306 -6.991624959914233 5.864042690215169 2.3192895569773833 -2.5736991625215486 15.287044239924692 4.161484424013852 2.6989091231691646 -10.307325778344937 1.3355565140057817 -4.922793103715929 15.327455054149072 -2.9915669342917552 8.675304156362811 -24.959558576430304 -4.582878494386489 0.05373029675571355 -0.03159213287139484 -0.026367344981239205 -0.22139631307773205 -0.06589969282469287 0.019953477185479886 0.0970495175864765 -0.061474077088068395 -0.009378870256739042 43.70336497039303 27.76902028773165 14.956060102935043 -24.27892339544936 -30.192537037339545 63.803570093892134 -4.932728040750535 -9.99761511929894 -5.732664001529973 0.13212712800784057 -0.006423472749279648 0.08154069262188984 0.044525576312489996 -0.07481023488592986 0.00357005450180104 -0.07649032801962076 0.06645507258157952 0.13250460268118955 7.739695452344357 5.658440335819445 0.4799978405032872 0.06096776263541476 -0.035925781178062145 0.014463966104133369 2.985352742807513 1.068818950618272 0.0857048001587101 0.0562063737319754 0.06734662571167775 0.07915559589980668 10.14489790346651 0.7207507496062767 -0.00660479292740233 -0.041199274186693786 0.11580222883956963 0.043058473023112415 2.365245417590756 -0.6951641139234684 -0.11687259418770467 0.05771146994861118 0.045475559576503566 -0.05011651303496856 -51.87813493513074 30.160298544457085 -21.84737263583024 23.39396310544749 -28.46800647946512 -60.56020695518739 5.606427591516152 -14.244238278203824 5.175096876561615 -0.07637304086496695 0.06857707361848497 0.012737022141604402 -0.01713513035856371 0.08788551147400857 0.07337896340926839 -0.029625198472989837 0.04855445410787193 0.04277539369852712 -7.890623849981421 5.538405737571995 -0.38270515751018763 -0.04025395999730816 -0.023004770815690526 -0.024382307913491025 -2.931200655190125 0.9132578704549407 -0.08850572466715745 0.060404325389741595 -0.04504691184523238 0.021701031777437894 -10.357080291353896 0.7159472056290537 0.1308108224887322 -0.05448948829021633 0.05369451830385032 -0.07936637126872505 -2.2042627680520215 -0.7790677051526389 0.4115916816966112 -0.05673112435930278 0.01036267763137872 -0.01493231430995526 -29.46296013586088 -35.24794594775409 -28.39508908743336 -6.496498570564485 60.2509838008934 7.446303822772813 -4.98683039605303 -10.081936365923687 -9.676221421677637 -0.0031125919099688577 0.07872944278840813 -0.08917783128974258 33.709015535291 -33.06996596107169 30.279724402094757 6.67798694209548 61.14680409167559 -8.105618568259558 5.246033086847252 -10.02279973431607 12.771115884620167
-0.1439899206161499 64.49246406555176 -0.11500930413603783 -4.041300842265131 4.23308316264898 5.0728224777034905 -2.7461996454350404 14.22701766375893 2.9959811574862876 2.8819669441053803 -9.278426935547863 0.8852931550022044 -5.1539348160788 15.63292672704143 -4.747213699590643 9.282744468876958 -25.574490752690306 -6.7718290455364 0.013153423557137172 -0.08613925088273315 0.0043523913062451765 0.08730497207498393 0.01806307559033341 0.0016689540556499712 -0.05301987704075289 0.08721759367837537 0.03306835419651012 53.4116729132441 30.715193357912675 15.32926846937371 -23.829018834820623 -28.554900146086023 65.81510861578508 -3.8523120692518167 -9.510104390873757 -4.036132523497547 -0.13487403799294928 0.08723827100887052 -0.22222257920431848 -0.026196230066231875 0.056988323670236075 0.05994595566341027 0.02361196396073408 -0.0463152993184449 -0.09458648733874642 7.855374951222277 5.432551038928314 0.4620392454629138 -0.0634125434714562 -0.03976712225595963 0.04064023921138411 2.864921566701379 0.8610426750757799 0.030617430192279638 -0.002189182350694868 -0.08618770253715793 -0.10756480725712268 10.507004651182967 0.7236633450396112 0.05561764344203203 0.13887217993706616 -0.12944905352296088 -0.10036514754169455 2.142749017169829 -0.9475408310550562 -0.32847921847239864 -0.06650042930653664 -0.04315542969281486 -0.06643255430165965 -63.23154858109273 33.53326110756824 -25.569777922163 22.728875142564792 -26.45746004254912 -62.25793926585327 5.10679669240878 -11.38113909135037 3.4210379168013443 -0.01606983429145328 -0.16387704892123328 -0.04713748333978519 0.14526942582715002 -0.037069064131672366 -0.011896375265163928 0.05164295359276063 -0.01901116454406936 -0.0038647131314636213 -7.639668185723166 5.474230133904201 -0.5868191176362305 0.10822936331902376 -0.11174899181484307 -0.13940045238068435 -3.0208646038497022 0.9874343651715138 -0.18440387513081077 -0.09214581528837756 0.03149261488075364 0.06736452827782259 -10.272082002227672 0.7302046919129264 -0.24893680974998708 0.22371201401063084 -0.03765739421521905 0.06696776365615362 -2.1898820181979715 -0.7651491670063281 0.03374444287274222 -0.04336876638267198 0.07212114138492823 0.018770720540943753 -32.57630379352526 -36.21652482866984 -27.365743721019292 -4.425409763732315 63.65635219652168 5.9552620010148045 -4.563435080253579 -9.648017863047361 -10.588489661754865 0.12072065873306638 0.06386668435019593 0.17756336063576367 36.81312819229211 -33.407927136298504 29.339231259046098 3.428446751060104 63.81055054722388 -4.593094322950713 5.243470058361204 -10.021661654045616 15.6127076595509
-0.6322067230939865 58.17555785179138 0.3855315037071705 -10.257678840815407 4.284920456467969 -1.1179826522640237 -2.401923746877136 16.75541026052508 1.381654207766138 3.7471749673578105 -10.729299134136557 0.2925535173356158 -3.462054696871152 12.486367859443275 -1.9385182501368083 6.966416866121832 -25.608112358879694 -1.631716184460179 -0.40416238355076783 -0.23721812612494925 -0.6573880451714205 -0.25797805922037986 -0.7474835230483248 0.27390707422105454 -0.26359087389254365 0.19289027845284584 0.10698716935447397 17.14601511877977 28.858607922625225 48.610466568264506 -23.41615439006086 -28.23236324555239 64.59219739584015 -4.636105304814753 -18.764780197356547 -6.812429824397071 -0.09705399989811932 0.30177606030370485 -0.5114436045552028 0.02407935167120394 -0.27652242302336116 0.15463980503817285 -0.15151536701886223 -0.1541015541150641 0.18354313789325694 7.252235096564301 5.167692951501321 0.39520168228781355 -0.2033513801773815 -0.29490403622502576 -0.029915294749730263 2.641151549443656 1.239373790113662 0.27592037920062157 0.06678884471641101 0.20145354808347 0.5630414682272707 9.446880744821533 0.7291977192580256 0.1208534205350585 -0.3044589906261976 0.04967938092808775 -0.0893358861360049 2.2960462097884182 -0.9870166564150853 0.2340807747792391 -0.10431086244784629 0.07956940931397424 -0.1777058341129819 -13.00618538264262 22.3553764930864 -74.63487041932001 21.005707207429786 -23.143336144043044 -54.11961860562133 -1.7730447512187903 5.094185174993174 -4.356413327170961 -0.0052107406456321495 0.08389724128767646 0.4563178948159703 0.28074372005426707 0.38582764785836776 0.2403745272951414 0.302090462448937 0.144825810376643 0.20594781255733838 -7.181324072601229 5.468416789146874 -0.5768042460439935 0.2528185983543757 -0.051691778773155644 -0.651911780921804 -3.0714963692801835 0.8246559094895948 -0.42459910996023936 0.6049588727721679 -0.13170088151494946 -0.18360591693668288 -9.776626056250471 1.1829251581095628 -0.22769833652583243 0.2482572059275708 0.3276957210694041 -0.42589207010620805 -2.5093636897384948 -0.8076788339772935 0.30541479022317625 0.06750782884826063 -0.012083458415398807 0.15121470529324946 -25.81499025110292 -40.76927279730646 -23.365499999628756 -12.895189685988035 62.930589955694465 13.147938274903417 -4.265497106015745 -7.71926123389497 -13.977454504317711 0.1261260597700439 0.4638955628132763 -0.06492703119820074 28.249291869410264 -36.38368346332215 24.09139884423937 13.872672572260546 61.195202812134305 -15.187526676170313 4.669320941635347 -6.07678045785944 16.82725531285715
-0.3560461103916168 65.84391593933105 0.5024814046919346 -6.259689081850974 19.508391430032297 5.5598828405302765 -2.7145688259453 19.554759876760222 0.7756178726524007 4.274695663280459 -12.359174369172006 1.0253574964341288 -5.1495980728426645 12.553559845403276 -5.416822820817067 7.472350749172656 -29.904678714769357 -5.374007780004842 0.11501118087589107 -0.1558468808914139 -0.7454974321037321 -1.1728060194107772 -0.7810770614290921 -0.24082708068850764 0.6341412295270176 -0.40039297290256703 -0.7115425340271888 -8.700487063832648 25.246129408341943 89.7095418798342 -25.001745239838886 -32.04410569868162 69.24606973023339 -3.774398393842189 -23.30010606096776 -4.892008587353035 -0.6855146040909743 0.23297721898060603 -0.7755112043074721 -0.22160676828153308 0.1573942655839656 1.0164486886006108 1.0530649058542259 0.47657922410199 0.25185767611551957 7.958224793517975 4.761464462407051 -0.007090163245296361 -0.8407828398936412 0.4135119787095897 -0.03480101444040501 3.128650325037792 1.7549818890718685 -0.007490196219204901 -1.0101393013548114 0.16472356549149172 0.07339710609925124 10.485963399671098 0.5115667614036745 0.3847458899681405 0.6862462881058119 -0.6491223956977943 -0.4740669951478947 1.4297937012015054 -1.5010746225968161 -0.7711313988630544 -1.229015701515632 0.2110051407509097 -0.22888924404064762 4.708632522290179 12.45425572506046 -103.73491869891602 21.435309030750663 -21.18721094688641 -53.11142121242492 -3.7452300709916493 26.764524857065382 -9.370954654460379 0.44036369349273125 0.27967735677009886 -0.4936942374190139 0.3974382490758754 -0.6721116385052937 -0.5720478730607259 -0.0025709258922751122 1.517281380836787 -0.04215443345343776 -7.104865227484813 7.067001220047202 -0.3141825119616512 0.014346278743082877 -0.5610697847129584 -0.7842523523412075 -3.213964937299952 0.7144658549919543 0.03058390623645104 0.03347886590790508 0.07395654128095759 0.07042701434692707 -11.061467455173554 1.4618523680097237 0.2711516798603362 0.7469645887539625 0.756030437577538 -0.8973916611781184 -3.242308301364801 -1.281281589705039 -0.28516402638602895 -0.0381127223729356 0.45532757074717134 -0.006484971132236208 -31.185363089808845 -48.48373240821492 -30.648049183276864 -12.283238887300742 71.9079447139491 13.37466213553376 -2.624972325403777 -8.879008571942919 -14.77364453322422 0.04505966508907326 0.03706955771956161 0.8989560946631687 30.709790678279195 -36.7180143930051 27.35529011649459 19.447331246399674 69.74146335073442 -18.574731891248234 3.4509846677738536 -5.244309317855469 18.853241392391965
